<mxfile host="app.diagrams.net" modified="2023-10-16T07:27:56.237Z" agent="Mozilla/5.0 (Windows NT 10.0; Win64; x64) AppleWebKit/537.36 (KHTML, like Gecko) Chrome/118.0.0.0 Safari/537.36" etag="ynvWj0HSho2Qgyj6VGoz" version="22.0.4" type="github">
  <diagram name="Seite-1" id="xfNeD4AvZAg8Gx9R8i6n">
    <mxGraphModel dx="866" dy="889" grid="1" gridSize="10" guides="1" tooltips="1" connect="1" arrows="1" fold="1" page="1" pageScale="1" pageWidth="827" pageHeight="1169" math="0" shadow="0">
      <root>
        <mxCell id="0" />
        <mxCell id="1" parent="0" />
        <mxCell id="WnUmfhlqQ6cUoQ1l-dc6-2" value="Sensor" style="ellipse;whiteSpace=wrap;html=1;aspect=fixed;sketch=1;hachureGap=4;jiggle=2;curveFitting=1;fontFamily=Architects Daughter;fontSource=https%3A%2F%2Ffonts.googleapis.com%2Fcss%3Ffamily%3DArchitects%2BDaughter;fontSize=20;" vertex="1" parent="1">
          <mxGeometry x="40" y="480" width="80" height="80" as="geometry" />
        </mxCell>
        <mxCell id="WnUmfhlqQ6cUoQ1l-dc6-3" value="Internet" style="ellipse;shape=cloud;whiteSpace=wrap;html=1;sketch=1;hachureGap=4;jiggle=2;curveFitting=1;fontFamily=Architects Daughter;fontSource=https%3A%2F%2Ffonts.googleapis.com%2Fcss%3Ffamily%3DArchitects%2BDaughter;fontSize=20;" vertex="1" parent="1">
          <mxGeometry x="50" y="70" width="470" height="140" as="geometry" />
        </mxCell>
        <mxCell id="WnUmfhlqQ6cUoQ1l-dc6-4" style="rounded=0;sketch=1;hachureGap=4;jiggle=2;curveFitting=1;orthogonalLoop=1;jettySize=auto;html=1;entryX=0.13;entryY=0.77;entryDx=0;entryDy=0;entryPerimeter=0;fontFamily=Architects Daughter;fontSource=https%3A%2F%2Ffonts.googleapis.com%2Fcss%3Ffamily%3DArchitects%2BDaughter;fontSize=16;" edge="1" parent="1" source="WnUmfhlqQ6cUoQ1l-dc6-2" target="WnUmfhlqQ6cUoQ1l-dc6-3">
          <mxGeometry relative="1" as="geometry" />
        </mxCell>
        <mxCell id="WnUmfhlqQ6cUoQ1l-dc6-5" value="MQTT" style="edgeLabel;html=1;align=center;verticalAlign=middle;resizable=0;points=[];fontSize=20;fontFamily=Architects Daughter;" vertex="1" connectable="0" parent="WnUmfhlqQ6cUoQ1l-dc6-4">
          <mxGeometry x="0.1514" relative="1" as="geometry">
            <mxPoint as="offset" />
          </mxGeometry>
        </mxCell>
        <mxCell id="WnUmfhlqQ6cUoQ1l-dc6-6" value="Virtual Host" style="whiteSpace=wrap;html=1;aspect=fixed;sketch=1;hachureGap=4;jiggle=2;curveFitting=1;fontFamily=Architects Daughter;fontSource=https%3A%2F%2Ffonts.googleapis.com%2Fcss%3Ffamily%3DArchitects%2BDaughter;fontSize=20;verticalAlign=bottom;" vertex="1" parent="1">
          <mxGeometry x="245" y="280" width="510" height="510" as="geometry" />
        </mxCell>
        <mxCell id="WnUmfhlqQ6cUoQ1l-dc6-16" style="edgeStyle=orthogonalEdgeStyle;rounded=0;sketch=1;hachureGap=4;jiggle=2;curveFitting=1;orthogonalLoop=1;jettySize=auto;html=1;fontFamily=Architects Daughter;fontSource=https%3A%2F%2Ffonts.googleapis.com%2Fcss%3Ffamily%3DArchitects%2BDaughter;fontSize=16;" edge="1" parent="1" source="WnUmfhlqQ6cUoQ1l-dc6-7" target="WnUmfhlqQ6cUoQ1l-dc6-11">
          <mxGeometry relative="1" as="geometry" />
        </mxCell>
        <mxCell id="WnUmfhlqQ6cUoQ1l-dc6-7" value="MQTT Broker" style="rounded=0;whiteSpace=wrap;html=1;sketch=1;hachureGap=4;jiggle=2;curveFitting=1;fontFamily=Architects Daughter;fontSource=https%3A%2F%2Ffonts.googleapis.com%2Fcss%3Ffamily%3DArchitects%2BDaughter;fontSize=20;" vertex="1" parent="1">
          <mxGeometry x="294" y="320" width="416" height="60" as="geometry" />
        </mxCell>
        <mxCell id="WnUmfhlqQ6cUoQ1l-dc6-17" style="edgeStyle=orthogonalEdgeStyle;rounded=0;sketch=1;hachureGap=4;jiggle=2;curveFitting=1;orthogonalLoop=1;jettySize=auto;html=1;exitX=0.25;exitY=1;exitDx=0;exitDy=0;entryX=0.5;entryY=0;entryDx=0;entryDy=0;fontFamily=Architects Daughter;fontSource=https%3A%2F%2Ffonts.googleapis.com%2Fcss%3Ffamily%3DArchitects%2BDaughter;fontSize=16;" edge="1" parent="1" source="WnUmfhlqQ6cUoQ1l-dc6-11" target="WnUmfhlqQ6cUoQ1l-dc6-12">
          <mxGeometry relative="1" as="geometry" />
        </mxCell>
        <mxCell id="WnUmfhlqQ6cUoQ1l-dc6-18" style="edgeStyle=orthogonalEdgeStyle;rounded=0;sketch=1;hachureGap=4;jiggle=2;curveFitting=1;orthogonalLoop=1;jettySize=auto;html=1;entryX=0.5;entryY=0;entryDx=0;entryDy=0;fontFamily=Architects Daughter;fontSource=https%3A%2F%2Ffonts.googleapis.com%2Fcss%3Ffamily%3DArchitects%2BDaughter;fontSize=16;" edge="1" parent="1" source="WnUmfhlqQ6cUoQ1l-dc6-11" target="WnUmfhlqQ6cUoQ1l-dc6-14">
          <mxGeometry relative="1" as="geometry" />
        </mxCell>
        <mxCell id="WnUmfhlqQ6cUoQ1l-dc6-19" style="edgeStyle=orthogonalEdgeStyle;rounded=0;sketch=1;hachureGap=4;jiggle=2;curveFitting=1;orthogonalLoop=1;jettySize=auto;html=1;fontFamily=Architects Daughter;fontSource=https%3A%2F%2Ffonts.googleapis.com%2Fcss%3Ffamily%3DArchitects%2BDaughter;fontSize=16;exitX=0.75;exitY=1;exitDx=0;exitDy=0;" edge="1" parent="1" source="WnUmfhlqQ6cUoQ1l-dc6-11" target="WnUmfhlqQ6cUoQ1l-dc6-13">
          <mxGeometry relative="1" as="geometry" />
        </mxCell>
        <mxCell id="WnUmfhlqQ6cUoQ1l-dc6-11" value="Metric Collector" style="rounded=0;whiteSpace=wrap;html=1;sketch=1;hachureGap=4;jiggle=2;curveFitting=1;fontFamily=Architects Daughter;fontSource=https%3A%2F%2Ffonts.googleapis.com%2Fcss%3Ffamily%3DArchitects%2BDaughter;fontSize=20;" vertex="1" parent="1">
          <mxGeometry x="294" y="430" width="416" height="60" as="geometry" />
        </mxCell>
        <mxCell id="WnUmfhlqQ6cUoQ1l-dc6-12" value="InfluxDB" style="rounded=0;whiteSpace=wrap;html=1;sketch=1;hachureGap=4;jiggle=2;curveFitting=1;fontFamily=Architects Daughter;fontSource=https%3A%2F%2Ffonts.googleapis.com%2Fcss%3Ffamily%3DArchitects%2BDaughter;fontSize=20;" vertex="1" parent="1">
          <mxGeometry x="294" y="545" width="136" height="60" as="geometry" />
        </mxCell>
        <mxCell id="WnUmfhlqQ6cUoQ1l-dc6-13" value="MongoDB" style="rounded=0;whiteSpace=wrap;html=1;sketch=1;hachureGap=4;jiggle=2;curveFitting=1;fontFamily=Architects Daughter;fontSource=https%3A%2F%2Ffonts.googleapis.com%2Fcss%3Ffamily%3DArchitects%2BDaughter;fontSize=20;" vertex="1" parent="1">
          <mxGeometry x="574" y="545" width="136" height="60" as="geometry" />
        </mxCell>
        <mxCell id="WnUmfhlqQ6cUoQ1l-dc6-14" value="File" style="shape=document;whiteSpace=wrap;html=1;boundedLbl=1;sketch=1;hachureGap=4;jiggle=2;curveFitting=1;fontFamily=Architects Daughter;fontSource=https%3A%2F%2Ffonts.googleapis.com%2Fcss%3Ffamily%3DArchitects%2BDaughter;fontSize=20;" vertex="1" parent="1">
          <mxGeometry x="442" y="545" width="120" height="80" as="geometry" />
        </mxCell>
        <mxCell id="WnUmfhlqQ6cUoQ1l-dc6-22" style="edgeStyle=orthogonalEdgeStyle;rounded=0;sketch=1;hachureGap=4;jiggle=2;curveFitting=1;orthogonalLoop=1;jettySize=auto;html=1;entryX=0.5;entryY=1;entryDx=0;entryDy=0;fontFamily=Architects Daughter;fontSource=https%3A%2F%2Ffonts.googleapis.com%2Fcss%3Ffamily%3DArchitects%2BDaughter;fontSize=16;exitX=0.25;exitY=0;exitDx=0;exitDy=0;" edge="1" parent="1" source="WnUmfhlqQ6cUoQ1l-dc6-20" target="WnUmfhlqQ6cUoQ1l-dc6-12">
          <mxGeometry relative="1" as="geometry" />
        </mxCell>
        <mxCell id="WnUmfhlqQ6cUoQ1l-dc6-23" style="edgeStyle=orthogonalEdgeStyle;rounded=0;sketch=1;hachureGap=4;jiggle=2;curveFitting=1;orthogonalLoop=1;jettySize=auto;html=1;entryX=0.5;entryY=1;entryDx=0;entryDy=0;fontFamily=Architects Daughter;fontSource=https%3A%2F%2Ffonts.googleapis.com%2Fcss%3Ffamily%3DArchitects%2BDaughter;fontSize=16;exitX=0.75;exitY=0;exitDx=0;exitDy=0;" edge="1" parent="1" source="WnUmfhlqQ6cUoQ1l-dc6-20" target="WnUmfhlqQ6cUoQ1l-dc6-13">
          <mxGeometry relative="1" as="geometry" />
        </mxCell>
        <mxCell id="WnUmfhlqQ6cUoQ1l-dc6-20" value="Nginx Reverse Proxy" style="rounded=0;whiteSpace=wrap;html=1;sketch=1;hachureGap=4;jiggle=2;curveFitting=1;fontFamily=Architects Daughter;fontSource=https%3A%2F%2Ffonts.googleapis.com%2Fcss%3Ffamily%3DArchitects%2BDaughter;fontSize=20;" vertex="1" parent="1">
          <mxGeometry x="292" y="680" width="416" height="60" as="geometry" />
        </mxCell>
        <mxCell id="WnUmfhlqQ6cUoQ1l-dc6-15" style="edgeStyle=orthogonalEdgeStyle;rounded=0;sketch=1;hachureGap=4;jiggle=2;curveFitting=1;orthogonalLoop=1;jettySize=auto;html=1;fontFamily=Architects Daughter;fontSource=https%3A%2F%2Ffonts.googleapis.com%2Fcss%3Ffamily%3DArchitects%2BDaughter;fontSize=16;" edge="1" parent="1" source="WnUmfhlqQ6cUoQ1l-dc6-3" target="WnUmfhlqQ6cUoQ1l-dc6-7">
          <mxGeometry relative="1" as="geometry">
            <Array as="points">
              <mxPoint x="285" y="240" />
              <mxPoint x="502" y="240" />
            </Array>
          </mxGeometry>
        </mxCell>
      </root>
    </mxGraphModel>
  </diagram>
</mxfile>
